<svg xmlns="http://www.w3.org/2000/svg" width="64" height="64" viewBox="0 0 64 64" shape-rendering="crispEdges">
  <defs>
    <style>
      .o{fill:#000000}
      .skin{fill:#cfa88a}
      .hair{fill:#2a2a2a}
      .leather{fill:#5b3a29}
      .leatherD{fill:#3b2419}
      .cloth{fill:#3a3a3a}
      .belt{fill:#2b1c12}
      .steel{fill:#bfc5c9}
      .boot{fill:#403225}
      .green{fill:#2f4f2f}
      .accent{fill:#d94d2b}
    </style>
  </defs>
  <rect class="hair" x="16" y="2" width="32" height="2"/>
  <rect class="hair" x="14" y="4" width="36" height="2"/>
  <rect class="hair" x="14" y="6" width="10" height="1"/>
  <rect class="hair" x="40" y="6" width="10" height="1"/>
  <rect class="skin" x="18" y="7" width="28" height="3"/>
  <rect class="skin" x="16" y="10" width="32" height="4"/>
  <rect class="o" x="22" y="11" width="3" height="2"/>
  <rect class="o" x="39" y="11" width="3" height="2"/>
  <rect class="accent" x="18" y="14" width="28" height="2"/>
  <rect class="leather" x="12" y="16" width="40" height="4"/>
  <rect class="leatherD" x="14" y="20" width="36" height="3"/>
  <rect class="belt" x="14" y="23" width="36" height="2"/>
  <rect class="steel" x="30" y="23" width="4" height="2"/>
  <rect class="cloth" x="12" y="25" width="40" height="5"/>
  <rect class="cloth" x="28" y="30" width="8" height="6"/>
  <rect class="skin" x="6" y="18" width="5" height="3"/>
  <rect class="skin" x="53" y="18" width="5" height="3"/>
  <rect class="leather" x="4" y="21" width="7" height="3"/>
  <rect class="leather" x="53" y="21" width="7" height="3"/>
  <rect class="steel" x="2" y="24" width="3" height="2"/>
  <rect class="steel" x="59" y="24" width="3" height="2"/>
  <rect class="o" x="12" y="16" width="40" height="1"/>
  <rect class="o" x="14" y="20" width="36" height="1"/>
  <rect class="o" x="14" y="23" width="36" height="1"/>
  <rect class="o" x="12" y="25" width="40" height="1"/>
  <rect class="cloth" x="16" y="32" width="12" height="18"/>
  <rect class="cloth" x="36" y="32" width="12" height="18"/>
  <rect class="boot" x="16" y="50" width="12" height="6"/>
  <rect class="boot" x="36" y="50" width="12" height="6"/>
  <rect class="boot" x="14" y="55" width="16" height="4"/>
  <rect class="boot" x="34" y="55" width="16" height="4"/>
  <rect class="o" x="28" y="30" width="8" height="1"/>
  <rect class="o" x="16" y="32" width="12" height="1"/>
  <rect class="o" x="36" y="32" width="12" height="1"/>
  <rect class="o" x="14" y="55" width="16" height="1"/>
  <rect class="o" x="34" y="55" width="16" height="1"/>
  <rect class="o" x="14" y="59" width="16" height="1"/>
  <rect class="o" x="34" y="59" width="16" height="1"/>
</svg>
